<svg width="32" height="32" viewBox="0 0 32 32" fill="none" xmlns="http://www.w3.org/2000/svg">
<rect width="32" height="32" fill="white"/>
<path d="M15.3109 22.308C15.3109 21.2902 15.3109 20.2723 15.3109 19.2546C15.3109 19.1047 15.3138 19.1017 15.4647 19.1017H18.1789C18.4192 19.1017 18.6473 19.0569 18.8508 18.921C19.1565 18.7167 19.3166 18.4281 19.3431 18.0637C19.3468 18.0106 19.3447 17.957 19.3447 17.9036V12.4842C19.3447 12.4402 19.3447 12.3962 19.3447 12.3524C19.349 12.1404 19.4932 11.9842 19.7044 11.9821C20.1912 11.9773 20.6781 11.9773 21.165 11.9821C21.3615 11.9838 21.5 12.1231 21.5198 12.3182C21.5235 12.362 21.525 12.4059 21.5241 12.4498C21.5241 14.2845 21.5381 16.1194 21.5198 17.9538C21.5057 19.3709 20.8043 20.3726 19.5521 20.9967C19.1669 21.1894 18.7461 21.2747 18.3119 21.2788C18.1015 21.281 17.8909 21.2798 17.6805 21.2802C17.4882 21.2802 17.488 21.2802 17.488 21.4682V25.257C17.488 25.2977 17.488 25.3385 17.488 25.3794C17.4829 25.6151 17.3517 25.7637 17.1175 25.767C16.6401 25.7739 16.1626 25.7739 15.6849 25.767C15.4492 25.7639 15.3133 25.6136 15.3117 25.3708C15.3091 24.906 15.3117 24.4409 15.3117 23.9759L15.3109 22.308Z" fill="#131313"/>
<path d="M10.0006 13.0934V10.2564C10.0006 10.2158 10.0006 10.1749 10.0006 10.1341C10.0033 9.83564 10.1358 9.70186 10.4328 9.70186C10.8726 9.70094 11.3124 9.70094 11.7524 9.70186C11.7963 9.70142 11.8402 9.70464 11.8836 9.71149C11.9606 9.72234 12.0316 9.75926 12.0847 9.81611C12.1378 9.87295 12.1698 9.94627 12.1753 10.0238C12.18 10.0833 12.1815 10.143 12.18 10.2026C12.18 12.0374 12.18 13.872 12.18 15.7067C12.18 15.9267 12.205 16.1406 12.3176 16.3337C12.5297 16.6964 12.8468 16.8909 13.2682 16.8946C13.8772 16.9001 14.4862 16.8962 15.0966 16.8962C15.128 16.8962 15.1595 16.8982 15.1907 16.8962C15.2606 16.8921 15.2842 16.9262 15.284 16.993C15.2828 17.6559 15.2828 18.3187 15.284 18.9815C15.284 19.0483 15.2606 19.0784 15.1905 19.0782C14.4931 19.0764 13.7947 19.1002 13.0985 19.0709C11.739 19.0138 10.5986 18.1032 10.1792 16.872C10.053 16.5021 9.9998 16.1222 10 15.7326C10.0016 14.8523 10.0018 13.9726 10.0006 13.0934Z" fill="#131313"/>
<path d="M15.3105 11.551V6.47153C15.3105 6.11575 15.4284 6.00004 15.7869 6.00004C16.2079 6.00004 16.6288 6.00004 17.0498 6.00004C17.1092 5.99942 17.1685 6.00542 17.2266 6.01792C17.296 6.03419 17.3584 6.07226 17.4046 6.12656C17.4509 6.18086 17.4785 6.24853 17.4835 6.31967C17.4876 6.36643 17.4874 6.41377 17.4874 6.46092C17.4874 9.55179 17.4879 12.6427 17.4888 15.7335C17.4888 15.9826 17.4432 16.2127 17.2955 16.4184C17.0751 16.7262 16.7726 16.8679 16.3989 16.8679C16.0786 16.8679 15.7581 16.8679 15.4377 16.8679C15.3221 16.8679 15.3109 16.8557 15.3107 16.7351C15.3107 15.9465 15.3107 15.158 15.3107 14.3696L15.3105 11.551Z" fill="#131313"/>
</svg>
